Coordinates
version=1
nRows=22
nColumns=24
inDegrees=yes

Units are S.I. units (second, meters, Newtons, ...)
Angles are in degrees.

endheader
time	pelvis_tilt	pelvis_list	pelvis_rotation	pelvis_tx	pelvis_ty	pelvis_tz	hip_flexion_r	hip_adduction_r	hip_rotation_r	knee_angle_r	ankle_angle_r	subtalar_angle_r	mtp_angle_r	hip_flexion_l	hip_adduction_l	hip_rotation_l	knee_angle_l	ankle_angle_l	subtalar_angle_l	mtp_angle_l	lumbar_extension	lumbar_bending	lumbar_rotation
      3.95000000	     -6.88070121	     -0.24351981	      3.50171299	     -1.54572057	     -0.02784890	      0.44782064	     34.10808999	     -3.15877834	     -8.14815972	    -51.45697548	     -7.89298367	      6.49547779	     24.01546976	      4.12645091	      6.10182999	     16.71547776	    -19.59756019	     10.03422555	      8.71575783	      9.90624474	      3.65016599	      0.53768795	     -5.66210494
      3.95500000	     -6.80071102	     -0.35878188	      3.85181480	     -1.53875052	     -0.02765489	      0.44762340	     34.30949412	     -3.15625429	     -8.34315610	    -49.86043584	     -7.47975763	      6.87083568	     23.61661521	      3.25283154	      5.83419086	     17.01398811	    -18.97440327	     10.08165071	      8.96292133	      9.86663056	      3.50869168	      0.62464339	     -6.19113472
      3.96000000	     -6.71780799	     -0.45725912	      4.20133926	     -1.53182099	     -0.02751237	      0.44749646	     34.47751881	     -3.16636750	     -8.52159631	    -48.20486643	     -7.03283278	      7.30093788	     23.21982305	      2.39338126	      5.56682614	     17.27580972	    -18.36873496	     10.12831636	      9.26529624	      9.85102925	      3.34605135	      0.68040493	     -6.71832352
      3.96500000	     -6.56012434	     -0.52881415	      4.48895559	     -1.52487822	     -0.02733900	      0.44753336	     34.53792619	     -3.13662437	     -8.60109136	    -46.51995833	     -6.44532305	      7.80798575	     22.33686445	      1.44824120	      5.29680169	     17.43770610	    -17.74685307	     10.14498541	      9.57620970	      9.82371062	      3.09164670	      0.71315018	     -7.17749974
      3.97000000	     -6.58293459	     -0.62552265	      4.83273409	     -1.51798752	     -0.02741577	      0.44746429	     34.75921148	     -3.15236908	     -8.72601951	    -44.73322146	     -6.01915160	      8.37820916	     22.19530192	      0.74850984	      5.01924744	     17.64121106	    -17.20192669	     10.21748620	      9.97229644	      9.88542918	      3.03905427	      0.75608341	     -7.68293073
      3.97500000	     -6.47514084	     -0.69915332	      5.13784548	     -1.51112120	     -0.02738297	      0.44752995	     34.80031477	     -3.13130306	     -8.75864747	    -42.88452505	     -5.54034094	      8.96268637	     21.84353173	     -0.08754566	      4.73078257	     17.74395013	    -16.65251327	     10.26792630	     10.45052451	      9.96150594	      2.81824295	      0.78598855	     -8.17568890
      3.98000000	     -6.42767128	     -0.80110858	      5.40828911	     -1.50419650	     -0.02747291	      0.44762702	     34.87082850	     -3.06499168	     -8.74699823	    -40.97250432	     -5.04168248	      9.61786110	     21.52922963	     -0.84314992	      4.41322529	     17.77939199	    -16.12653603	     10.32558552	     10.92284494	     10.06057646	      2.68062268	      0.85178587	     -8.58207080
      3.98500000	     -6.35180753	     -0.89204793	      5.62975502	     -1.49731746	     -0.02757085	      0.44784738	     34.89069324	     -2.96173501	     -8.62916707	    -39.02264366	     -4.58020824	     10.31596895	     21.10488206	     -1.61911194	      4.09020476	     17.74498071	    -15.60832126	     10.38878831	     11.47197741	     10.19999608	      2.49104471	      0.90414742	     -8.98835555
      3.99000000	     -6.30484728	     -1.00113575	      5.82035275	     -1.49040889	     -0.02776067	      0.44812386	     34.90620763	     -2.81501846	     -8.44254026	    -37.01889083	     -4.09711496	     11.02295671	     20.68125166	     -2.34201958	      3.74894137	     17.63751984	    -15.12589429	     10.44811964	     12.03386028	     10.36156320	      2.33789082	      0.97570108	     -9.31990939
      3.99500000	     -6.31202122	     -1.12487899	      5.94890466	     -1.48343561	     -0.02806350	      0.44841730	     34.95905481	     -2.62988818	     -8.18373135	    -34.98145156	     -3.69626252	     11.72775371	     20.31822628	     -3.01232728	      3.40317480	     17.49760462	    -14.64099105	     10.51031849	     12.56077047	     10.51755221	      2.25799813	      1.08104033	     -9.57093940
      4.00000000	     -6.21320264	     -1.22830459	      6.07031531	     -1.47662004	     -0.02830173	      0.44886886	     34.86908251	     -2.40050714	     -7.73702018	    -32.91918850	     -3.28024279	     12.32381681	     19.64622901	     -3.74315929	      3.05453655	     17.22264808	    -14.22861898	     10.58002436	     13.27012585	     10.76941608	      2.01274906	      1.15041792	     -9.87036723
      4.00500000	     -6.18866848	     -1.35499512	      6.14310183	     -1.46970956	     -0.02868257	      0.44931634	     34.83503718	     -2.13588443	     -7.21332967	    -30.84363639	     -2.91058808	     12.86802325	     18.96097043	     -4.39343408	      2.70172608	     16.92234088	    -13.83203154	     10.64369009	     13.91624925	     10.99836425	      1.87140424	      1.25572970	    -10.07740641
      4.01000000	     -6.17370998	     -1.49331358	      6.19314625	     -1.46277112	     -0.02913633	      0.44978883	     34.78549674	     -1.83960137	     -6.57990972	    -28.76183327	     -2.59820927	     13.24551611	     18.21036664	     -5.01485773	      2.34609288	     16.57561510	    -13.47444764	     10.69671321	     14.55280522	     11.22677269	      1.74014762	      1.37947712	    -10.25245367
      4.01500000	     -6.21145084	     -1.66130714	      6.21788670	     -1.45580604	     -0.02968254	      0.45025605	     34.77214010	     -1.51226015	     -5.85831268	    -26.68112477	     -2.42052797	     13.48658360	     17.45219658	     -5.56361479	      1.97870067	     16.27153341	    -13.15784605	     10.73650761	     15.12959186	     11.43106468	      1.66955554	      1.53700277	    -10.37001961
      4.02000000	     -6.18657494	     -1.79549707	      6.25966897	     -1.44885793	     -0.03021750	      0.45075104	     34.66804936	     -1.20102969	     -4.97450814	    -24.64588334	     -2.26760336	     13.43073569	     16.39219837	     -6.15636178	      1.63510997	     15.86250640	    -12.87503559	     10.78813351	     15.85075164	     11.69973754	      1.52129577	      1.66260901	    -10.57249934
      4.02500000	     -6.23516383	     -1.97358658	      6.32138081	     -1.44180425	     -0.03088878	      0.45115503	     34.61969623	     -0.88865691	     -4.08893677	    -22.65166866	     -2.14210816	     13.20887433	     15.29925237	     -6.63390637	      1.27337413	     15.50485545	    -12.67575550	     10.82656259	     16.47763233	     11.93444347	      1.47293494	      1.83646791	    -10.71989865
      4.03000000	     -6.25264081	     -2.09777895	      6.32081735	     -1.43472056	     -0.03159135	      0.45162521	     34.56752380	     -0.61195995	     -3.13504305	    -20.83607621	     -1.90085840	     13.03132479	     13.60753059	     -7.14103111	      0.96500944	     14.94393980	    -12.49421094	     10.88989487	     17.30552671	     12.20269962	      1.37894529	      1.96278985	    -10.86230592
      4.03500000	     -6.39180225	     -2.31299012	      6.52253586	     -1.42755018	     -0.03239512	      0.45180279	     34.59166303	     -0.39878956	     -2.37211684	    -18.99122743	     -1.98911369	     12.36290903	     12.52954780	     -7.45634617	      0.58963215	     14.82785663	    -12.41794191	     10.87725465	     17.79750709	     12.36189488	      1.45303237	      2.16598034	    -11.19877532
      4.04000000	     -6.39741044	     -2.44257107	      6.48804784	     -1.42025234	     -0.03319586	      0.45232165	     34.52708873	     -0.11359945	     -1.32270386	    -17.40265437	     -1.77859407	     11.77953527	     10.53057484	     -7.95084917	      0.28276557	     14.17302590	    -12.31731936	     10.93282308	     18.69235206	     12.63744131	      1.36709499	      2.30831879	    -11.24900238
      4.04500000	     -6.52945014	     -2.67076372	      6.61311510	     -1.41282551	     -0.03411219	      0.45258120	     34.58380615	      0.12313030	     -0.58191115	    -15.89482682	     -1.73708560	     10.99590558	      8.79277226	     -8.24486584	     -0.10214181	     13.81489759	    -12.32699405	     10.95068829	     19.35855988	     12.83220789	      1.46156053	      2.54461623	    -11.47059819
      4.05000000	     -6.65215803	     -2.85084145	      6.80436190	     -1.40536639	     -0.03506985	      0.45281756	     34.65038986	      0.26015064	      0.04078946	    -14.55849545	     -1.63882255	     10.20071483	      7.19156754	     -8.51482964	     -0.44779667	     13.50563595	    -12.39704571	     10.95968861	     20.12317287	     13.06963741	      1.54298153	      2.71311986	    -11.77502032
      4.05500000	     -6.80034437	     -3.07069008	      7.01927862	     -1.39777542	     -0.03607929	      0.45302254	     34.77197900	      0.39638270	      0.43090605	    -13.40428584	     -1.50373475	      9.49192987	      5.58184858	     -8.72350472	     -0.83256006	     13.18484844	    -12.53006582	     10.95731285	     20.88391867	     13.29576991	      1.67714450	      2.92524653	    -12.12088355
